<mxfile host="Electron" modified="2023-06-22T16:38:25.880Z" agent="Mozilla/5.0 (Macintosh; Intel Mac OS X 10_15_7) AppleWebKit/537.36 (KHTML, like Gecko) draw.io/21.5.0 Chrome/112.0.5615.204 Electron/24.5.1 Safari/537.36" etag="oJZIjRRnR7E344obf13h" version="21.5.0" type="device" pages="2">
  <diagram name="dev" id="k-mCYI5a-6djnXxxm9TU">
    <mxGraphModel dx="1026" dy="658" grid="1" gridSize="10" guides="1" tooltips="1" connect="1" arrows="1" fold="1" page="1" pageScale="1" pageWidth="850" pageHeight="1100" math="0" shadow="0">
      <root>
        <mxCell id="0" />
        <mxCell id="1" parent="0" />
        <mxCell id="Pur5mQGr_GA0DPuU1__K-4" style="edgeStyle=orthogonalEdgeStyle;rounded=0;orthogonalLoop=1;jettySize=auto;html=1;exitX=1;exitY=0.5;exitDx=0;exitDy=0;entryX=0;entryY=0.5;entryDx=0;entryDy=0;" parent="1" source="Pur5mQGr_GA0DPuU1__K-1" target="Pur5mQGr_GA0DPuU1__K-2" edge="1">
          <mxGeometry relative="1" as="geometry" />
        </mxCell>
        <mxCell id="Pur5mQGr_GA0DPuU1__K-1" value="&lt;font color=&quot;#0000ff&quot;&gt;Downstream&lt;br&gt;&lt;/font&gt;&lt;br&gt;&lt;font color=&quot;#990000&quot; style=&quot;font-size: 16px;&quot;&gt;curl&lt;/font&gt;" style="rounded=1;whiteSpace=wrap;html=1;" parent="1" vertex="1">
          <mxGeometry width="120" height="120" as="geometry" />
        </mxCell>
        <mxCell id="Pur5mQGr_GA0DPuU1__K-5" style="edgeStyle=orthogonalEdgeStyle;rounded=0;orthogonalLoop=1;jettySize=auto;html=1;exitX=1;exitY=0.5;exitDx=0;exitDy=0;" parent="1" source="Pur5mQGr_GA0DPuU1__K-2" target="Pur5mQGr_GA0DPuU1__K-3" edge="1">
          <mxGeometry relative="1" as="geometry" />
        </mxCell>
        <mxCell id="Pur5mQGr_GA0DPuU1__K-2" value="&lt;font style=&quot;font-size: 16px;&quot;&gt;Envoy Proxy&lt;br&gt;&lt;br&gt;&lt;br&gt;&lt;/font&gt;" style="rounded=1;whiteSpace=wrap;html=1;fontColor=#990000;horizontal=1;verticalAlign=middle;" parent="1" vertex="1">
          <mxGeometry x="240" width="200" height="120" as="geometry" />
        </mxCell>
        <mxCell id="Pur5mQGr_GA0DPuU1__K-3" value="&lt;font color=&quot;#0000ff&quot;&gt;Upstream&lt;br&gt;&lt;/font&gt;&lt;br&gt;&lt;font style=&quot;font-size: 16px;&quot;&gt;httpbin&lt;/font&gt;" style="rounded=1;whiteSpace=wrap;html=1;fontColor=#990000;" parent="1" vertex="1">
          <mxGeometry x="560" width="120" height="120" as="geometry" />
        </mxCell>
        <mxCell id="2" value="&lt;font style=&quot;font-size: 16px;&quot;&gt;jwt_issuer&lt;/font&gt;" style="rounded=1;whiteSpace=wrap;html=1;fontColor=#990000;" parent="1" vertex="1">
          <mxGeometry x="280" y="200" width="120" height="120" as="geometry" />
        </mxCell>
        <mxCell id="6" style="edgeStyle=none;html=1;exitX=0.5;exitY=1;exitDx=0;exitDy=0;entryX=0.5;entryY=0;entryDx=0;entryDy=0;fontSize=16;fontColor=#990000;" parent="1" source="3" target="2" edge="1">
          <mxGeometry relative="1" as="geometry" />
        </mxCell>
        <mxCell id="3" value="&lt;font color=&quot;#0000ff&quot;&gt;wasm&lt;br&gt;&lt;/font&gt;&lt;b&gt;add_auth_header&lt;/b&gt;" style="rounded=1;whiteSpace=wrap;html=1;fontColor=#990000;" parent="1" vertex="1">
          <mxGeometry x="280" y="70" width="120" height="40" as="geometry" />
        </mxCell>
        <mxCell id="7" value="&lt;b&gt;Four additional HTTP headers&lt;br&gt;&lt;/b&gt;&lt;br&gt;by Envoy:&lt;br&gt;&lt;ul&gt;&lt;li&gt;X-Envoy-Expected-Rq-Timeout-Ms&lt;/li&gt;&lt;li&gt;X-Request-Id&lt;/li&gt;&lt;/ul&gt;&lt;br&gt;by wasm plugin:&lt;br&gt;&lt;ul&gt;&lt;li&gt;Authorization&lt;/li&gt;&lt;li&gt;From-Proxy-Wasm&lt;/li&gt;&lt;/ul&gt;" style="rounded=0;whiteSpace=wrap;html=1;align=left;spacingLeft=6;spacingRight=6;" parent="1" vertex="1">
          <mxGeometry x="480" y="200" width="240" height="200" as="geometry" />
        </mxCell>
        <mxCell id="8" value="" style="endArrow=none;dashed=1;html=1;exitX=0.25;exitY=0;exitDx=0;exitDy=0;" parent="1" source="7" edge="1">
          <mxGeometry width="50" height="50" relative="1" as="geometry">
            <mxPoint x="610" y="100" as="sourcePoint" />
            <mxPoint x="480" y="60" as="targetPoint" />
          </mxGeometry>
        </mxCell>
      </root>
    </mxGraphModel>
  </diagram>
  <diagram id="yhipSlFSrOJmY2OGG5Dm" name="test">
    <mxGraphModel dx="1026" dy="658" grid="1" gridSize="10" guides="1" tooltips="1" connect="1" arrows="1" fold="1" page="1" pageScale="1" pageWidth="850" pageHeight="1100" math="0" shadow="0">
      <root>
        <mxCell id="0" />
        <mxCell id="1" parent="0" />
        <mxCell id="EPC-sOTybSgJF5fIfBj1-1" value="Mesh" style="rounded=0;whiteSpace=wrap;html=1;fontFamily=Helvetica;fontSize=20;dashed=1;verticalAlign=top;" parent="1" vertex="1">
          <mxGeometry x="160" width="740" height="400" as="geometry" />
        </mxCell>
        <mxCell id="EPC-sOTybSgJF5fIfBj1-2" style="edgeStyle=orthogonalEdgeStyle;rounded=0;orthogonalLoop=1;jettySize=auto;html=1;exitX=0;exitY=0.5;exitDx=0;exitDy=0;fontFamily=Helvetica;fontSize=12;dashed=1;" parent="1" source="EPC-sOTybSgJF5fIfBj1-4" edge="1">
          <mxGeometry relative="1" as="geometry">
            <mxPoint x="470" y="85" as="targetPoint" />
          </mxGeometry>
        </mxCell>
        <mxCell id="EPC-sOTybSgJF5fIfBj1-3" value="apply" style="edgeLabel;html=1;align=center;verticalAlign=middle;resizable=0;points=[];fontSize=12;fontFamily=Helvetica;fontColor=#000000;" parent="EPC-sOTybSgJF5fIfBj1-2" vertex="1" connectable="0">
          <mxGeometry x="0.0429" y="1" relative="1" as="geometry">
            <mxPoint x="1" y="-1" as="offset" />
          </mxGeometry>
        </mxCell>
        <mxCell id="EPC-sOTybSgJF5fIfBj1-4" value="&lt;span style=&quot;font-weight: normal; font-size: 12px;&quot;&gt;Istio Resource&lt;br&gt;&lt;/span&gt;EnvoyFilter" style="rounded=0;whiteSpace=wrap;html=1;fontFamily=Helvetica;fontSize=14;fillColor=#ffcc99;strokeColor=#36393d;fontStyle=1" parent="1" vertex="1">
          <mxGeometry x="600" y="65" width="120" height="40" as="geometry" />
        </mxCell>
        <mxCell id="EPC-sOTybSgJF5fIfBj1-5" value="DockerHub.com&lt;br&gt;" style="rounded=0;whiteSpace=wrap;html=1;fontFamily=Helvetica;fontSize=14;verticalAlign=top;" parent="1" vertex="1">
          <mxGeometry x="930" y="35" width="170" height="80" as="geometry" />
        </mxCell>
        <mxCell id="EPC-sOTybSgJF5fIfBj1-6" style="edgeStyle=orthogonalEdgeStyle;rounded=0;orthogonalLoop=1;jettySize=auto;html=1;exitX=0;exitY=0.5;exitDx=0;exitDy=0;fontFamily=Helvetica;fontSize=14;" parent="1" source="EPC-sOTybSgJF5fIfBj1-7" target="EPC-sOTybSgJF5fIfBj1-4" edge="1">
          <mxGeometry relative="1" as="geometry">
            <Array as="points">
              <mxPoint x="900" y="85" />
              <mxPoint x="900" y="85" />
            </Array>
          </mxGeometry>
        </mxCell>
        <mxCell id="EPC-sOTybSgJF5fIfBj1-7" value="add_auth_header.wasm" style="rounded=0;whiteSpace=wrap;html=1;fontFamily=Helvetica;fontSize=11;fontStyle=1" parent="1" vertex="1">
          <mxGeometry x="950" y="65" width="130" height="40" as="geometry" />
        </mxCell>
        <mxCell id="EPC-sOTybSgJF5fIfBj1-8" style="edgeStyle=orthogonalEdgeStyle;rounded=0;orthogonalLoop=1;jettySize=auto;html=1;entryX=0.01;entryY=0.393;entryDx=0;entryDy=0;fontFamily=Helvetica;fontSize=14;exitX=1;exitY=0.5;exitDx=0;exitDy=0;strokeColor=#0000CC;entryPerimeter=0;" parent="1" source="EPC-sOTybSgJF5fIfBj1-14" target="EPC-sOTybSgJF5fIfBj1-9" edge="1">
          <mxGeometry relative="1" as="geometry">
            <mxPoint x="520" y="215" as="sourcePoint" />
          </mxGeometry>
        </mxCell>
        <mxCell id="EPC-sOTybSgJF5fIfBj1-9" value="" style="rounded=0;whiteSpace=wrap;html=1;" parent="1" vertex="1">
          <mxGeometry x="610" y="160" width="100" height="140" as="geometry" />
        </mxCell>
        <mxCell id="EPC-sOTybSgJF5fIfBj1-10" value="portfolio" style="rounded=0;whiteSpace=wrap;html=1;fillColor=#d5e8d4;strokeColor=#82b366;fontStyle=1" parent="1" vertex="1">
          <mxGeometry x="620" y="250" width="80" height="40" as="geometry" />
        </mxCell>
        <mxCell id="EPC-sOTybSgJF5fIfBj1-11" style="edgeStyle=orthogonalEdgeStyle;rounded=0;orthogonalLoop=1;jettySize=auto;html=1;exitX=0.5;exitY=1;exitDx=0;exitDy=0;entryX=0.5;entryY=0;entryDx=0;entryDy=0;startArrow=classic;startFill=1;strokeColor=#0000FF;" parent="1" source="EPC-sOTybSgJF5fIfBj1-13" target="EPC-sOTybSgJF5fIfBj1-10" edge="1">
          <mxGeometry relative="1" as="geometry" />
        </mxCell>
        <mxCell id="EPC-sOTybSgJF5fIfBj1-12" style="edgeStyle=orthogonalEdgeStyle;rounded=0;orthogonalLoop=1;jettySize=auto;html=1;exitX=0.5;exitY=0;exitDx=0;exitDy=0;strokeColor=#FF0000;startArrow=classic;startFill=1;endArrow=none;endFill=0;" parent="1" source="EPC-sOTybSgJF5fIfBj1-13" edge="1">
          <mxGeometry relative="1" as="geometry">
            <mxPoint x="660" y="140" as="targetPoint" />
          </mxGeometry>
        </mxCell>
        <mxCell id="EPC-sOTybSgJF5fIfBj1-13" value="Proxy" style="rounded=0;whiteSpace=wrap;html=1;fillColor=#e1d5e7;strokeColor=#9673a6;fontStyle=1" parent="1" vertex="1">
          <mxGeometry x="620" y="170" width="80" height="40" as="geometry" />
        </mxCell>
        <mxCell id="EPC-sOTybSgJF5fIfBj1-14" value="Istio Ingress Gateway" style="rounded=0;whiteSpace=wrap;html=1;fontStyle=1;fillColor=#e1d5e7;strokeColor=#9673a6;" parent="1" vertex="1">
          <mxGeometry x="210" y="180" width="100" height="70" as="geometry" />
        </mxCell>
        <mxCell id="EPC-sOTybSgJF5fIfBj1-15" value="" style="endArrow=classic;html=1;rounded=0;dashed=1;exitX=0.5;exitY=0;exitDx=0;exitDy=0;exitPerimeter=0;" parent="1" edge="1">
          <mxGeometry width="50" height="50" relative="1" as="geometry">
            <mxPoint x="530" y="310" as="sourcePoint" />
            <mxPoint x="530" y="220" as="targetPoint" />
          </mxGeometry>
        </mxCell>
        <mxCell id="EPC-sOTybSgJF5fIfBj1-16" value="enhance" style="edgeLabel;html=1;align=center;verticalAlign=middle;resizable=0;points=[];fontSize=12;fontFamily=Helvetica;fontColor=#000000;" parent="EPC-sOTybSgJF5fIfBj1-15" vertex="1" connectable="0">
          <mxGeometry x="-0.2778" y="1" relative="1" as="geometry">
            <mxPoint x="1" as="offset" />
          </mxGeometry>
        </mxCell>
        <mxCell id="EPC-sOTybSgJF5fIfBj1-17" value="" style="edgeStyle=orthogonalEdgeStyle;rounded=0;orthogonalLoop=1;jettySize=auto;html=1;strokeColor=#0000CC;entryX=0;entryY=0.5;entryDx=0;entryDy=0;exitX=0.5;exitY=1;exitDx=0;exitDy=0;" parent="1" source="EPC-sOTybSgJF5fIfBj1-18" target="EPC-sOTybSgJF5fIfBj1-14" edge="1">
          <mxGeometry relative="1" as="geometry" />
        </mxCell>
        <mxCell id="EPC-sOTybSgJF5fIfBj1-18" value="&lt;b&gt;Client&lt;/b&gt;" style="rounded=0;whiteSpace=wrap;html=1;" parent="1" vertex="1">
          <mxGeometry x="20" y="50" width="80" height="50" as="geometry" />
        </mxCell>
        <mxCell id="EPC-sOTybSgJF5fIfBj1-19" style="edgeStyle=orthogonalEdgeStyle;rounded=0;orthogonalLoop=1;jettySize=auto;html=1;entryX=0.5;entryY=1;entryDx=0;entryDy=0;dashed=1;fontFamily=Helvetica;fontSize=14;" parent="1" source="EPC-sOTybSgJF5fIfBj1-23" target="EPC-sOTybSgJF5fIfBj1-14" edge="1">
          <mxGeometry relative="1" as="geometry" />
        </mxCell>
        <mxCell id="EPC-sOTybSgJF5fIfBj1-20" value="enhance" style="edgeLabel;html=1;align=center;verticalAlign=middle;resizable=0;points=[];fontSize=12;fontFamily=Helvetica;fontColor=#000000;" parent="EPC-sOTybSgJF5fIfBj1-19" vertex="1" connectable="0">
          <mxGeometry x="-0.0833" y="2" relative="1" as="geometry">
            <mxPoint x="1" y="1" as="offset" />
          </mxGeometry>
        </mxCell>
        <mxCell id="EPC-sOTybSgJF5fIfBj1-21" style="edgeStyle=orthogonalEdgeStyle;rounded=0;orthogonalLoop=1;jettySize=auto;html=1;entryX=0.25;entryY=1;entryDx=0;entryDy=0;fontFamily=Helvetica;fontSize=12;dashed=1;" parent="1" source="EPC-sOTybSgJF5fIfBj1-23" target="EPC-sOTybSgJF5fIfBj1-30" edge="1">
          <mxGeometry relative="1" as="geometry" />
        </mxCell>
        <mxCell id="EPC-sOTybSgJF5fIfBj1-22" value="apply" style="edgeLabel;html=1;align=center;verticalAlign=middle;resizable=0;points=[];fontSize=12;fontFamily=Helvetica;fontColor=#000000;" parent="EPC-sOTybSgJF5fIfBj1-21" vertex="1" connectable="0">
          <mxGeometry x="-0.786" y="2" relative="1" as="geometry">
            <mxPoint x="46" y="-68" as="offset" />
          </mxGeometry>
        </mxCell>
        <mxCell id="EPC-sOTybSgJF5fIfBj1-23" value="&lt;span style=&quot;border-color: var(--border-color); font-size: 12px;&quot;&gt;Istio Resource&lt;br style=&quot;border-color: var(--border-color);&quot;&gt;&lt;b&gt;Gateway&lt;/b&gt;&lt;/span&gt;" style="rounded=0;whiteSpace=wrap;html=1;fontFamily=Helvetica;fontSize=14;fillColor=#ffcc99;strokeColor=#36393d;" parent="1" vertex="1">
          <mxGeometry x="200" y="310" width="120" height="60" as="geometry" />
        </mxCell>
        <mxCell id="EPC-sOTybSgJF5fIfBj1-24" style="edgeStyle=orthogonalEdgeStyle;rounded=0;orthogonalLoop=1;jettySize=auto;html=1;entryX=0.75;entryY=1;entryDx=0;entryDy=0;fontFamily=Helvetica;fontSize=12;exitX=0;exitY=0.5;exitDx=0;exitDy=0;dashed=1;" parent="1" source="EPC-sOTybSgJF5fIfBj1-26" target="EPC-sOTybSgJF5fIfBj1-30" edge="1">
          <mxGeometry relative="1" as="geometry" />
        </mxCell>
        <mxCell id="EPC-sOTybSgJF5fIfBj1-25" value="apply" style="edgeLabel;html=1;align=center;verticalAlign=middle;resizable=0;points=[];fontSize=12;fontFamily=Helvetica;fontColor=#000000;" parent="EPC-sOTybSgJF5fIfBj1-24" vertex="1" connectable="0">
          <mxGeometry x="-0.3029" y="1" relative="1" as="geometry">
            <mxPoint x="1" as="offset" />
          </mxGeometry>
        </mxCell>
        <mxCell id="EPC-sOTybSgJF5fIfBj1-26" value="&lt;span style=&quot;border-color: var(--border-color); font-size: 12px;&quot;&gt;Istio Resource&lt;br style=&quot;border-color: var(--border-color);&quot;&gt;&lt;b&gt;Virtual Service&lt;/b&gt;&lt;/span&gt;" style="rounded=0;whiteSpace=wrap;html=1;fontFamily=Helvetica;fontSize=14;fillColor=#ffcc99;strokeColor=#36393d;" parent="1" vertex="1">
          <mxGeometry x="470" y="310" width="120" height="60" as="geometry" />
        </mxCell>
        <mxCell id="EPC-sOTybSgJF5fIfBj1-27" style="edgeStyle=orthogonalEdgeStyle;rounded=0;orthogonalLoop=1;jettySize=auto;html=1;exitX=0.5;exitY=1;exitDx=0;exitDy=0;fontFamily=Helvetica;fontSize=12;startArrow=none;startFill=0;strokeColor=#FF0000;" parent="1" source="EPC-sOTybSgJF5fIfBj1-28" target="EPC-sOTybSgJF5fIfBj1-14" edge="1">
          <mxGeometry relative="1" as="geometry" />
        </mxCell>
        <mxCell id="EPC-sOTybSgJF5fIfBj1-28" value="&lt;span style=&quot;font-size: 12px;&quot;&gt;&lt;b&gt;istiod&lt;br&gt;(Istio Pilot)&lt;br&gt;&lt;/b&gt;&lt;/span&gt;" style="rounded=0;whiteSpace=wrap;html=1;fontFamily=Helvetica;fontSize=14;fillColor=#e1d5e7;strokeColor=#9673a6;" parent="1" vertex="1">
          <mxGeometry x="210" y="50" width="100" height="70" as="geometry" />
        </mxCell>
        <mxCell id="EPC-sOTybSgJF5fIfBj1-29" style="edgeStyle=orthogonalEdgeStyle;rounded=0;orthogonalLoop=1;jettySize=auto;html=1;exitX=0;exitY=0.5;exitDx=0;exitDy=0;entryX=1;entryY=0.5;entryDx=0;entryDy=0;fontFamily=Helvetica;fontSize=12;startArrow=classic;startFill=1;" parent="1" source="EPC-sOTybSgJF5fIfBj1-30" target="EPC-sOTybSgJF5fIfBj1-28" edge="1">
          <mxGeometry relative="1" as="geometry" />
        </mxCell>
        <mxCell id="EPC-sOTybSgJF5fIfBj1-30" value="&lt;span style=&quot;font-size: 12px;&quot;&gt;&lt;b&gt;Kubernetes&lt;br&gt;API&lt;br&gt;&lt;/b&gt;&lt;/span&gt;" style="rounded=0;whiteSpace=wrap;html=1;fontFamily=Helvetica;fontSize=14;fillColor=#cce5ff;strokeColor=#36393d;" parent="1" vertex="1">
          <mxGeometry x="380" y="62.5" width="90" height="45" as="geometry" />
        </mxCell>
        <mxCell id="EPC-sOTybSgJF5fIfBj1-31" value="http://localhost/totalAsset" style="text;html=1;strokeColor=none;fillColor=none;align=center;verticalAlign=middle;whiteSpace=wrap;rounded=0;fontSize=12;fontFamily=Helvetica;fontColor=#0000CC;fontStyle=1" parent="1" vertex="1">
          <mxGeometry y="220" width="160" height="30" as="geometry" />
        </mxCell>
        <mxCell id="EPC-sOTybSgJF5fIfBj1-32" value="" style="rounded=0;whiteSpace=wrap;html=1;" parent="1" vertex="1">
          <mxGeometry x="760" y="160" width="100" height="140" as="geometry" />
        </mxCell>
        <mxCell id="EPC-sOTybSgJF5fIfBj1-33" value="pricing" style="rounded=0;whiteSpace=wrap;html=1;fillColor=#d5e8d4;strokeColor=#82b366;fontStyle=1" parent="1" vertex="1">
          <mxGeometry x="770" y="250" width="80" height="40" as="geometry" />
        </mxCell>
        <mxCell id="EPC-sOTybSgJF5fIfBj1-34" style="edgeStyle=orthogonalEdgeStyle;rounded=0;orthogonalLoop=1;jettySize=auto;html=1;exitX=0.5;exitY=1;exitDx=0;exitDy=0;entryX=0.5;entryY=0;entryDx=0;entryDy=0;startArrow=classic;startFill=1;strokeColor=#0000FF;" parent="1" source="EPC-sOTybSgJF5fIfBj1-35" target="EPC-sOTybSgJF5fIfBj1-33" edge="1">
          <mxGeometry relative="1" as="geometry" />
        </mxCell>
        <mxCell id="EPC-sOTybSgJF5fIfBj1-35" value="Proxy" style="rounded=0;whiteSpace=wrap;html=1;fillColor=#e1d5e7;strokeColor=#9673a6;fontStyle=1" parent="1" vertex="1">
          <mxGeometry x="770" y="170" width="80" height="40" as="geometry" />
        </mxCell>
        <mxCell id="EPC-sOTybSgJF5fIfBj1-36" style="edgeStyle=orthogonalEdgeStyle;rounded=0;orthogonalLoop=1;jettySize=auto;html=1;exitX=1;exitY=0.5;exitDx=0;exitDy=0;entryX=0;entryY=0.5;entryDx=0;entryDy=0;strokeColor=#0000CC;" parent="1" source="EPC-sOTybSgJF5fIfBj1-13" target="EPC-sOTybSgJF5fIfBj1-35" edge="1">
          <mxGeometry relative="1" as="geometry" />
        </mxCell>
        <mxCell id="EPC-sOTybSgJF5fIfBj1-37" style="edgeStyle=orthogonalEdgeStyle;rounded=0;orthogonalLoop=1;jettySize=auto;html=1;entryX=0.5;entryY=0;entryDx=0;entryDy=0;strokeColor=#FF0000;fontFamily=Helvetica;fontSize=12;startArrow=none;startFill=0;exitX=0.75;exitY=1;exitDx=0;exitDy=0;" parent="1" source="EPC-sOTybSgJF5fIfBj1-28" target="EPC-sOTybSgJF5fIfBj1-35" edge="1">
          <mxGeometry relative="1" as="geometry">
            <Array as="points">
              <mxPoint x="285" y="140" />
              <mxPoint x="810" y="140" />
            </Array>
          </mxGeometry>
        </mxCell>
        <mxCell id="EPC-sOTybSgJF5fIfBj1-38" style="edgeStyle=orthogonalEdgeStyle;rounded=0;orthogonalLoop=1;jettySize=auto;html=1;fontFamily=Helvetica;fontSize=14;dashed=1;entryX=0.75;entryY=0;entryDx=0;entryDy=0;" parent="1" target="EPC-sOTybSgJF5fIfBj1-9" edge="1">
          <mxGeometry relative="1" as="geometry">
            <mxPoint x="636" y="170" as="targetPoint" />
            <mxPoint x="685" y="110" as="sourcePoint" />
          </mxGeometry>
        </mxCell>
        <mxCell id="EPC-sOTybSgJF5fIfBj1-39" value="enhance" style="edgeLabel;html=1;align=center;verticalAlign=middle;resizable=0;points=[];fontSize=12;fontFamily=Helvetica;fontColor=#000000;" parent="EPC-sOTybSgJF5fIfBj1-38" vertex="1" connectable="0">
          <mxGeometry x="-0.0308" y="4" relative="1" as="geometry">
            <mxPoint y="-4" as="offset" />
          </mxGeometry>
        </mxCell>
        <mxCell id="0gWbl2VK5nZ7TjI4dD6O-1" value="Mesh" style="rounded=0;whiteSpace=wrap;html=1;fontFamily=Helvetica;fontSize=20;dashed=1;verticalAlign=top;" vertex="1" parent="1">
          <mxGeometry x="160" width="740" height="400" as="geometry" />
        </mxCell>
        <mxCell id="0gWbl2VK5nZ7TjI4dD6O-2" style="edgeStyle=orthogonalEdgeStyle;rounded=0;orthogonalLoop=1;jettySize=auto;html=1;exitX=0;exitY=0.5;exitDx=0;exitDy=0;fontFamily=Helvetica;fontSize=12;dashed=1;" edge="1" parent="1" source="0gWbl2VK5nZ7TjI4dD6O-4">
          <mxGeometry relative="1" as="geometry">
            <mxPoint x="470" y="85" as="targetPoint" />
          </mxGeometry>
        </mxCell>
        <mxCell id="0gWbl2VK5nZ7TjI4dD6O-3" value="apply" style="edgeLabel;html=1;align=center;verticalAlign=middle;resizable=0;points=[];fontSize=12;fontFamily=Helvetica;fontColor=#000000;" vertex="1" connectable="0" parent="0gWbl2VK5nZ7TjI4dD6O-2">
          <mxGeometry x="0.0429" y="1" relative="1" as="geometry">
            <mxPoint x="1" y="-1" as="offset" />
          </mxGeometry>
        </mxCell>
        <mxCell id="0gWbl2VK5nZ7TjI4dD6O-4" value="&lt;span style=&quot;font-weight: normal; font-size: 12px;&quot;&gt;Istio Resource&lt;br&gt;&lt;/span&gt;EnvoyFilter" style="rounded=0;whiteSpace=wrap;html=1;fontFamily=Helvetica;fontSize=14;fillColor=#ffcc99;strokeColor=#36393d;fontStyle=1" vertex="1" parent="1">
          <mxGeometry x="600" y="65" width="120" height="40" as="geometry" />
        </mxCell>
        <mxCell id="0gWbl2VK5nZ7TjI4dD6O-5" value="DockerHub.com&lt;br&gt;" style="rounded=0;whiteSpace=wrap;html=1;fontFamily=Helvetica;fontSize=14;verticalAlign=top;" vertex="1" parent="1">
          <mxGeometry x="930" y="35" width="170" height="80" as="geometry" />
        </mxCell>
        <mxCell id="0gWbl2VK5nZ7TjI4dD6O-6" style="edgeStyle=orthogonalEdgeStyle;rounded=0;orthogonalLoop=1;jettySize=auto;html=1;exitX=0;exitY=0.5;exitDx=0;exitDy=0;fontFamily=Helvetica;fontSize=14;" edge="1" parent="1" source="0gWbl2VK5nZ7TjI4dD6O-7" target="0gWbl2VK5nZ7TjI4dD6O-4">
          <mxGeometry relative="1" as="geometry">
            <Array as="points">
              <mxPoint x="900" y="85" />
              <mxPoint x="900" y="85" />
            </Array>
          </mxGeometry>
        </mxCell>
        <mxCell id="0gWbl2VK5nZ7TjI4dD6O-7" value="add_auth_header.wasm" style="rounded=0;whiteSpace=wrap;html=1;fontFamily=Helvetica;fontSize=11;fontStyle=1" vertex="1" parent="1">
          <mxGeometry x="950" y="65" width="130" height="40" as="geometry" />
        </mxCell>
        <mxCell id="0gWbl2VK5nZ7TjI4dD6O-8" style="edgeStyle=orthogonalEdgeStyle;rounded=0;orthogonalLoop=1;jettySize=auto;html=1;entryX=0.01;entryY=0.393;entryDx=0;entryDy=0;fontFamily=Helvetica;fontSize=14;exitX=1;exitY=0.5;exitDx=0;exitDy=0;strokeColor=#0000CC;entryPerimeter=0;" edge="1" parent="1" source="0gWbl2VK5nZ7TjI4dD6O-15" target="0gWbl2VK5nZ7TjI4dD6O-9">
          <mxGeometry relative="1" as="geometry">
            <mxPoint x="520" y="215" as="sourcePoint" />
          </mxGeometry>
        </mxCell>
        <mxCell id="0gWbl2VK5nZ7TjI4dD6O-9" value="" style="rounded=0;whiteSpace=wrap;html=1;" vertex="1" parent="1">
          <mxGeometry x="610" y="160" width="100" height="140" as="geometry" />
        </mxCell>
        <mxCell id="0gWbl2VK5nZ7TjI4dD6O-10" value="portfolio" style="rounded=0;whiteSpace=wrap;html=1;fillColor=#d5e8d4;strokeColor=#82b366;fontStyle=1" vertex="1" parent="1">
          <mxGeometry x="620" y="250" width="80" height="40" as="geometry" />
        </mxCell>
        <mxCell id="0gWbl2VK5nZ7TjI4dD6O-11" style="edgeStyle=orthogonalEdgeStyle;rounded=0;orthogonalLoop=1;jettySize=auto;html=1;exitX=0.5;exitY=1;exitDx=0;exitDy=0;entryX=0.5;entryY=0;entryDx=0;entryDy=0;startArrow=classic;startFill=1;strokeColor=#0000FF;" edge="1" parent="1" source="0gWbl2VK5nZ7TjI4dD6O-14" target="0gWbl2VK5nZ7TjI4dD6O-10">
          <mxGeometry relative="1" as="geometry" />
        </mxCell>
        <mxCell id="0gWbl2VK5nZ7TjI4dD6O-12" style="edgeStyle=orthogonalEdgeStyle;rounded=0;orthogonalLoop=1;jettySize=auto;html=1;exitX=0.5;exitY=0;exitDx=0;exitDy=0;strokeColor=#FF0000;startArrow=classic;startFill=1;endArrow=none;endFill=0;" edge="1" parent="1" source="0gWbl2VK5nZ7TjI4dD6O-14">
          <mxGeometry relative="1" as="geometry">
            <mxPoint x="660" y="140" as="targetPoint" />
          </mxGeometry>
        </mxCell>
        <mxCell id="0gWbl2VK5nZ7TjI4dD6O-13" style="edgeStyle=orthogonalEdgeStyle;rounded=0;orthogonalLoop=1;jettySize=auto;html=1;exitX=1;exitY=0.75;exitDx=0;exitDy=0;entryX=0;entryY=0.5;entryDx=0;entryDy=0;strokeColor=#0000FF;" edge="1" parent="1" source="0gWbl2VK5nZ7TjI4dD6O-14" target="0gWbl2VK5nZ7TjI4dD6O-43">
          <mxGeometry relative="1" as="geometry" />
        </mxCell>
        <mxCell id="0gWbl2VK5nZ7TjI4dD6O-14" value="Proxy" style="rounded=0;whiteSpace=wrap;html=1;fillColor=#e1d5e7;strokeColor=#9673a6;fontStyle=1" vertex="1" parent="1">
          <mxGeometry x="620" y="170" width="80" height="40" as="geometry" />
        </mxCell>
        <mxCell id="0gWbl2VK5nZ7TjI4dD6O-15" value="Istio Ingress Gateway" style="rounded=0;whiteSpace=wrap;html=1;fontStyle=1;fillColor=#e1d5e7;strokeColor=#9673a6;" vertex="1" parent="1">
          <mxGeometry x="210" y="180" width="100" height="70" as="geometry" />
        </mxCell>
        <mxCell id="0gWbl2VK5nZ7TjI4dD6O-16" value="" style="endArrow=classic;html=1;rounded=0;dashed=1;exitX=0.5;exitY=0;exitDx=0;exitDy=0;exitPerimeter=0;" edge="1" parent="1">
          <mxGeometry width="50" height="50" relative="1" as="geometry">
            <mxPoint x="530" y="310" as="sourcePoint" />
            <mxPoint x="530" y="220" as="targetPoint" />
          </mxGeometry>
        </mxCell>
        <mxCell id="0gWbl2VK5nZ7TjI4dD6O-17" value="enhance" style="edgeLabel;html=1;align=center;verticalAlign=middle;resizable=0;points=[];fontSize=12;fontFamily=Helvetica;fontColor=#000000;" vertex="1" connectable="0" parent="0gWbl2VK5nZ7TjI4dD6O-16">
          <mxGeometry x="-0.2778" y="1" relative="1" as="geometry">
            <mxPoint x="1" as="offset" />
          </mxGeometry>
        </mxCell>
        <mxCell id="0gWbl2VK5nZ7TjI4dD6O-18" value="" style="edgeStyle=orthogonalEdgeStyle;rounded=0;orthogonalLoop=1;jettySize=auto;html=1;strokeColor=#0000CC;entryX=0;entryY=0.5;entryDx=0;entryDy=0;exitX=0.5;exitY=1;exitDx=0;exitDy=0;" edge="1" parent="1" source="0gWbl2VK5nZ7TjI4dD6O-19" target="0gWbl2VK5nZ7TjI4dD6O-15">
          <mxGeometry relative="1" as="geometry" />
        </mxCell>
        <mxCell id="0gWbl2VK5nZ7TjI4dD6O-19" value="&lt;b&gt;Client&lt;/b&gt;" style="rounded=0;whiteSpace=wrap;html=1;" vertex="1" parent="1">
          <mxGeometry x="20" y="50" width="80" height="50" as="geometry" />
        </mxCell>
        <mxCell id="0gWbl2VK5nZ7TjI4dD6O-20" style="edgeStyle=orthogonalEdgeStyle;rounded=0;orthogonalLoop=1;jettySize=auto;html=1;entryX=0.5;entryY=1;entryDx=0;entryDy=0;dashed=1;fontFamily=Helvetica;fontSize=14;" edge="1" parent="1" source="0gWbl2VK5nZ7TjI4dD6O-24" target="0gWbl2VK5nZ7TjI4dD6O-15">
          <mxGeometry relative="1" as="geometry" />
        </mxCell>
        <mxCell id="0gWbl2VK5nZ7TjI4dD6O-21" value="enhance" style="edgeLabel;html=1;align=center;verticalAlign=middle;resizable=0;points=[];fontSize=12;fontFamily=Helvetica;fontColor=#000000;" vertex="1" connectable="0" parent="0gWbl2VK5nZ7TjI4dD6O-20">
          <mxGeometry x="-0.0833" y="2" relative="1" as="geometry">
            <mxPoint x="1" y="1" as="offset" />
          </mxGeometry>
        </mxCell>
        <mxCell id="0gWbl2VK5nZ7TjI4dD6O-22" style="edgeStyle=orthogonalEdgeStyle;rounded=0;orthogonalLoop=1;jettySize=auto;html=1;entryX=0.25;entryY=1;entryDx=0;entryDy=0;fontFamily=Helvetica;fontSize=12;dashed=1;" edge="1" parent="1" source="0gWbl2VK5nZ7TjI4dD6O-24" target="0gWbl2VK5nZ7TjI4dD6O-31">
          <mxGeometry relative="1" as="geometry" />
        </mxCell>
        <mxCell id="0gWbl2VK5nZ7TjI4dD6O-23" value="apply" style="edgeLabel;html=1;align=center;verticalAlign=middle;resizable=0;points=[];fontSize=12;fontFamily=Helvetica;fontColor=#000000;" vertex="1" connectable="0" parent="0gWbl2VK5nZ7TjI4dD6O-22">
          <mxGeometry x="-0.786" y="2" relative="1" as="geometry">
            <mxPoint x="46" y="-68" as="offset" />
          </mxGeometry>
        </mxCell>
        <mxCell id="0gWbl2VK5nZ7TjI4dD6O-24" value="&lt;span style=&quot;border-color: var(--border-color); font-size: 12px;&quot;&gt;Istio Resource&lt;br style=&quot;border-color: var(--border-color);&quot;&gt;&lt;b&gt;Gateway&lt;/b&gt;&lt;/span&gt;" style="rounded=0;whiteSpace=wrap;html=1;fontFamily=Helvetica;fontSize=14;fillColor=#ffcc99;strokeColor=#36393d;" vertex="1" parent="1">
          <mxGeometry x="200" y="310" width="120" height="60" as="geometry" />
        </mxCell>
        <mxCell id="0gWbl2VK5nZ7TjI4dD6O-25" style="edgeStyle=orthogonalEdgeStyle;rounded=0;orthogonalLoop=1;jettySize=auto;html=1;entryX=0.75;entryY=1;entryDx=0;entryDy=0;fontFamily=Helvetica;fontSize=12;exitX=0;exitY=0.5;exitDx=0;exitDy=0;dashed=1;" edge="1" parent="1" source="0gWbl2VK5nZ7TjI4dD6O-27" target="0gWbl2VK5nZ7TjI4dD6O-31">
          <mxGeometry relative="1" as="geometry" />
        </mxCell>
        <mxCell id="0gWbl2VK5nZ7TjI4dD6O-26" value="apply" style="edgeLabel;html=1;align=center;verticalAlign=middle;resizable=0;points=[];fontSize=12;fontFamily=Helvetica;fontColor=#000000;" vertex="1" connectable="0" parent="0gWbl2VK5nZ7TjI4dD6O-25">
          <mxGeometry x="-0.3029" y="1" relative="1" as="geometry">
            <mxPoint x="1" as="offset" />
          </mxGeometry>
        </mxCell>
        <mxCell id="0gWbl2VK5nZ7TjI4dD6O-27" value="&lt;span style=&quot;border-color: var(--border-color); font-size: 12px;&quot;&gt;Istio Resource&lt;br style=&quot;border-color: var(--border-color);&quot;&gt;&lt;b&gt;Virtual Service&lt;/b&gt;&lt;/span&gt;" style="rounded=0;whiteSpace=wrap;html=1;fontFamily=Helvetica;fontSize=14;fillColor=#ffcc99;strokeColor=#36393d;" vertex="1" parent="1">
          <mxGeometry x="470" y="310" width="120" height="60" as="geometry" />
        </mxCell>
        <mxCell id="0gWbl2VK5nZ7TjI4dD6O-28" style="edgeStyle=orthogonalEdgeStyle;rounded=0;orthogonalLoop=1;jettySize=auto;html=1;exitX=0.5;exitY=1;exitDx=0;exitDy=0;fontFamily=Helvetica;fontSize=12;startArrow=none;startFill=0;strokeColor=#FF0000;" edge="1" parent="1" source="0gWbl2VK5nZ7TjI4dD6O-29" target="0gWbl2VK5nZ7TjI4dD6O-15">
          <mxGeometry relative="1" as="geometry" />
        </mxCell>
        <mxCell id="0gWbl2VK5nZ7TjI4dD6O-29" value="&lt;span style=&quot;font-size: 12px;&quot;&gt;&lt;b&gt;istiod&lt;br&gt;(Istio Pilot)&lt;br&gt;&lt;/b&gt;&lt;/span&gt;" style="rounded=0;whiteSpace=wrap;html=1;fontFamily=Helvetica;fontSize=14;fillColor=#e1d5e7;strokeColor=#9673a6;" vertex="1" parent="1">
          <mxGeometry x="210" y="50" width="100" height="70" as="geometry" />
        </mxCell>
        <mxCell id="0gWbl2VK5nZ7TjI4dD6O-30" style="edgeStyle=orthogonalEdgeStyle;rounded=0;orthogonalLoop=1;jettySize=auto;html=1;exitX=0;exitY=0.5;exitDx=0;exitDy=0;entryX=1;entryY=0.5;entryDx=0;entryDy=0;fontFamily=Helvetica;fontSize=12;startArrow=classic;startFill=1;" edge="1" parent="1" source="0gWbl2VK5nZ7TjI4dD6O-31" target="0gWbl2VK5nZ7TjI4dD6O-29">
          <mxGeometry relative="1" as="geometry" />
        </mxCell>
        <mxCell id="0gWbl2VK5nZ7TjI4dD6O-31" value="&lt;span style=&quot;font-size: 12px;&quot;&gt;&lt;b&gt;Kubernetes&lt;br&gt;API&lt;br&gt;&lt;/b&gt;&lt;/span&gt;" style="rounded=0;whiteSpace=wrap;html=1;fontFamily=Helvetica;fontSize=14;fillColor=#cce5ff;strokeColor=#36393d;" vertex="1" parent="1">
          <mxGeometry x="380" y="62.5" width="90" height="45" as="geometry" />
        </mxCell>
        <mxCell id="0gWbl2VK5nZ7TjI4dD6O-32" value="http://localhost/totalAsset" style="text;html=1;strokeColor=none;fillColor=none;align=center;verticalAlign=middle;whiteSpace=wrap;rounded=0;fontSize=12;fontFamily=Helvetica;fontColor=#0000CC;fontStyle=1" vertex="1" parent="1">
          <mxGeometry y="220" width="160" height="30" as="geometry" />
        </mxCell>
        <mxCell id="0gWbl2VK5nZ7TjI4dD6O-33" value="" style="rounded=0;whiteSpace=wrap;html=1;" vertex="1" parent="1">
          <mxGeometry x="760" y="160" width="100" height="140" as="geometry" />
        </mxCell>
        <mxCell id="0gWbl2VK5nZ7TjI4dD6O-34" value="pricing" style="rounded=0;whiteSpace=wrap;html=1;fillColor=#d5e8d4;strokeColor=#82b366;fontStyle=1" vertex="1" parent="1">
          <mxGeometry x="770" y="250" width="80" height="40" as="geometry" />
        </mxCell>
        <mxCell id="0gWbl2VK5nZ7TjI4dD6O-35" style="edgeStyle=orthogonalEdgeStyle;rounded=0;orthogonalLoop=1;jettySize=auto;html=1;exitX=0.5;exitY=1;exitDx=0;exitDy=0;entryX=0.5;entryY=0;entryDx=0;entryDy=0;startArrow=classic;startFill=1;strokeColor=#0000FF;" edge="1" parent="1" source="0gWbl2VK5nZ7TjI4dD6O-36" target="0gWbl2VK5nZ7TjI4dD6O-34">
          <mxGeometry relative="1" as="geometry" />
        </mxCell>
        <mxCell id="0gWbl2VK5nZ7TjI4dD6O-36" value="Proxy" style="rounded=0;whiteSpace=wrap;html=1;fillColor=#e1d5e7;strokeColor=#9673a6;fontStyle=1" vertex="1" parent="1">
          <mxGeometry x="770" y="170" width="80" height="40" as="geometry" />
        </mxCell>
        <mxCell id="0gWbl2VK5nZ7TjI4dD6O-37" style="edgeStyle=orthogonalEdgeStyle;rounded=0;orthogonalLoop=1;jettySize=auto;html=1;exitX=1;exitY=0.5;exitDx=0;exitDy=0;entryX=0;entryY=0.5;entryDx=0;entryDy=0;strokeColor=#0000CC;" edge="1" parent="1" source="0gWbl2VK5nZ7TjI4dD6O-14" target="0gWbl2VK5nZ7TjI4dD6O-36">
          <mxGeometry relative="1" as="geometry" />
        </mxCell>
        <mxCell id="0gWbl2VK5nZ7TjI4dD6O-38" style="edgeStyle=orthogonalEdgeStyle;rounded=0;orthogonalLoop=1;jettySize=auto;html=1;entryX=0.5;entryY=0;entryDx=0;entryDy=0;strokeColor=#FF0000;fontFamily=Helvetica;fontSize=12;startArrow=none;startFill=0;exitX=0.75;exitY=1;exitDx=0;exitDy=0;" edge="1" parent="1" source="0gWbl2VK5nZ7TjI4dD6O-29" target="0gWbl2VK5nZ7TjI4dD6O-36">
          <mxGeometry relative="1" as="geometry">
            <Array as="points">
              <mxPoint x="285" y="140" />
              <mxPoint x="810" y="140" />
            </Array>
          </mxGeometry>
        </mxCell>
        <mxCell id="0gWbl2VK5nZ7TjI4dD6O-39" style="edgeStyle=orthogonalEdgeStyle;rounded=0;orthogonalLoop=1;jettySize=auto;html=1;fontFamily=Helvetica;fontSize=14;dashed=1;entryX=0.75;entryY=0;entryDx=0;entryDy=0;" edge="1" parent="1" target="0gWbl2VK5nZ7TjI4dD6O-9">
          <mxGeometry relative="1" as="geometry">
            <mxPoint x="636" y="170" as="targetPoint" />
            <mxPoint x="685" y="110" as="sourcePoint" />
          </mxGeometry>
        </mxCell>
        <mxCell id="0gWbl2VK5nZ7TjI4dD6O-40" value="enhance" style="edgeLabel;html=1;align=center;verticalAlign=middle;resizable=0;points=[];fontSize=12;fontFamily=Helvetica;fontColor=#000000;" vertex="1" connectable="0" parent="0gWbl2VK5nZ7TjI4dD6O-39">
          <mxGeometry x="-0.0308" y="4" relative="1" as="geometry">
            <mxPoint y="-4" as="offset" />
          </mxGeometry>
        </mxCell>
        <mxCell id="0gWbl2VK5nZ7TjI4dD6O-41" value="jwt_issuer" style="rounded=0;whiteSpace=wrap;html=1;fontStyle=1" vertex="1" parent="1">
          <mxGeometry x="930" y="320" width="80" height="60" as="geometry" />
        </mxCell>
        <mxCell id="0gWbl2VK5nZ7TjI4dD6O-42" style="edgeStyle=orthogonalEdgeStyle;rounded=0;orthogonalLoop=1;jettySize=auto;html=1;exitX=1;exitY=0.5;exitDx=0;exitDy=0;entryX=0;entryY=0.5;entryDx=0;entryDy=0;startArrow=classic;startFill=1;strokeColor=#0000FF;" edge="1" parent="1" source="0gWbl2VK5nZ7TjI4dD6O-43" target="0gWbl2VK5nZ7TjI4dD6O-41">
          <mxGeometry relative="1" as="geometry" />
        </mxCell>
        <mxCell id="0gWbl2VK5nZ7TjI4dD6O-43" value="ServiceEntry" style="rounded=0;whiteSpace=wrap;html=1;fillColor=#e1d5e7;strokeColor=#9673a6;fontStyle=1" vertex="1" parent="1">
          <mxGeometry x="770" y="330" width="80" height="40" as="geometry" />
        </mxCell>
      </root>
    </mxGraphModel>
  </diagram>
</mxfile>
